<svg width="1778" height="416" viewBox="0 0 1778 416" fill="none" xmlns="http://www.w3.org/2000/svg">
<g clip-path="url(#clip0_48_113)">
<path d="M1756.48 355.423H1466.13C1456.99 355.423 1449.58 362.831 1449.58 371.97V399.482C1449.58 408.621 1456.99 416.029 1466.13 416.029H1756.48C1765.62 416.029 1773.03 408.621 1773.03 399.482V371.97C1773.03 362.831 1765.62 355.423 1756.48 355.423Z" fill="#ED1C2D"/>
<path d="M1777.97 180.604H663.547V261.577H1777.97V180.604Z" fill="#ED1C2D"/>
<path d="M67.5059 268.114C63.3988 278.326 60.5644 288.856 59.1182 299.444H38.9301C33.8976 299.444 29.1253 300.949 25.1918 303.552C24.7001 284.459 25.9149 265.887 28.7204 247.979C40.0581 257.005 53.218 263.948 67.5059 268.114Z" fill="#ED1C2D"/>
<path d="M452.7 239.793C449.576 246.128 446.105 253.708 442.432 261.75C422.533 305.259 411.311 328.027 392.714 329.155C392.28 329.155 391.846 329.155 391.412 329.155C383.834 329.155 377.009 325.105 372.583 317.844L372.034 316.947L371.629 316.021C361.159 292.588 349.214 271.904 336.083 254.113C325.757 252.695 261.925 245.376 228.143 274.161C213.913 286.224 207 303.205 207 326.059C207 334.97 199.799 342.202 190.89 342.202C189.734 342.202 188.606 342.086 187.535 341.855C191.729 337.371 194.303 331.296 194.303 324.7C194.303 313.649 187.159 304.247 177.268 300.833C181.606 280.004 191.671 262.792 207.319 249.513C235.605 225.502 276.213 220.179 305.627 220.005C279.394 196.023 250.038 181.761 219.09 178.174C220.218 171.81 220.797 165.243 220.797 158.589V146.005C244.079 148.435 266.928 155.754 288.592 167.817C330.964 191.452 366.336 231.664 393.928 287.555C400.378 276.244 408.187 259.118 413.133 248.327C416.922 240.053 420.509 232.214 423.864 225.444C427.826 217.46 437.515 214.22 445.498 218.183C453.452 222.146 456.72 231.808 452.757 239.793H452.7Z" fill="#ED1C2D"/>
<path d="M622.881 103.19C622.043 104.752 611.399 124.164 583.865 143.17C556.301 162.176 511.847 180.778 443.358 180.778C306.379 180.778 265.482 106.372 263.805 103.19C259.64 95.3213 262.677 85.5432 270.544 81.3774C278.411 77.2117 288.187 80.2492 292.352 88.1179C293.595 90.3455 323.878 142.707 426.38 148.03C422.331 109.178 403.618 79.8442 371.629 62.6314C322.084 35.9588 247.203 42.4968 184.007 77.7324V63.9911C184.007 56.6431 182.995 49.5265 181.086 42.7571C251.31 7.95547 330.559 3.9054 386.929 34.2231C429.272 57.0192 454.406 97.0859 458.802 148.117C563.995 143.199 594.074 88.6965 594.392 88.1179C598.557 80.2492 608.304 77.2406 616.2 81.3774C624.096 85.5143 627.075 95.2923 622.939 103.19H622.881Z" fill="#ED1C2D"/>
<path d="M788.638 93.2099C789.159 93.2099 789.65 92.8627 789.65 92.0238V88.4366C789.65 62.4294 789.65 57.6271 789.303 52.1595C788.956 46.3448 787.597 43.5965 781.957 42.4104C780.597 42.0633 777.676 41.8897 775.276 41.8897C773.396 41.8897 772.354 41.5426 772.354 40.3565C772.354 39.1704 773.54 38.8232 775.941 38.8232C785.196 38.8232 795.955 39.344 800.583 39.344C804.69 39.344 815.478 38.8232 822.16 38.8232C824.56 38.8232 825.746 39.1704 825.746 40.3565C825.746 41.5426 824.734 41.8897 822.68 41.8897C821.321 41.8897 819.759 42.0633 817.705 42.4104C813.078 43.2783 811.718 46.1712 811.371 52.1595C811.024 57.6271 811.024 62.4294 811.024 88.4366V118.552C811.024 134.289 811.024 147.828 811.892 155.176C812.412 159.978 813.425 163.739 818.573 164.404C820.974 164.751 824.734 165.099 827.308 165.099C829.188 165.099 830.055 165.619 830.055 166.458C830.055 167.644 828.696 168.165 826.643 168.165C815.507 168.165 804.748 167.644 799.947 167.644C796.013 167.644 785.225 168.165 778.544 168.165C776.143 168.165 774.957 167.644 774.957 166.458C774.957 165.59 775.652 165.099 777.705 165.099C780.279 165.099 782.333 164.751 783.866 164.404C787.279 163.71 788.146 159.949 788.84 155.002C789.708 147.799 789.708 134.289 789.708 118.552V103.48C789.708 102.785 789.188 102.467 788.696 102.467H723.33C722.81 102.467 722.318 102.641 722.318 103.48V118.552C722.318 134.289 722.318 147.828 723.186 155.176C723.706 159.978 724.719 163.739 729.867 164.404C732.267 164.751 736.027 165.099 738.602 165.099C740.481 165.099 741.349 165.619 741.349 166.458C741.349 167.644 739.99 168.165 737.936 168.165C726.801 168.165 716.042 167.644 711.241 167.644C707.307 167.644 696.519 168.165 689.664 168.165C687.437 168.165 686.251 167.644 686.251 166.458C686.251 165.59 686.945 165.099 688.999 165.099C691.573 165.099 693.627 164.751 695.16 164.404C698.572 163.71 699.44 159.949 700.134 155.002C701.002 147.799 701.002 134.289 701.002 118.552V88.4366C701.002 62.4294 701.002 57.6271 700.655 52.1595C700.308 46.3448 698.948 43.5965 693.308 42.4104C691.949 42.0633 689.028 41.8897 686.627 41.8897C684.747 41.8897 683.706 41.5426 683.706 40.3565C683.706 39.1704 684.892 38.8232 687.292 38.8232C696.548 38.8232 707.307 39.344 711.935 39.344C716.042 39.344 726.83 38.8232 733.511 38.8232C735.912 38.8232 737.098 39.1704 737.098 40.3565C737.098 41.5426 735.565 41.8897 734.032 41.8897C732.672 41.8897 730.445 42.0633 729.057 42.2369C724.429 42.9312 723.07 46.1712 722.723 52.1595C722.376 57.6271 722.376 62.4294 722.376 88.4366V92.0238C722.376 92.8917 722.896 93.2099 723.388 93.2099H788.754H788.638Z" fill="white"/>
<path d="M865.515 103.479C865.515 74.2029 884.864 36.3926 936.202 36.3926C978.805 36.3926 1005.33 61.2137 1005.33 100.413C1005.33 139.611 977.938 170.595 934.496 170.595C885.385 170.595 865.544 133.797 865.544 103.508L865.515 103.479ZM981.379 106.719C981.379 68.3881 959.311 44.5795 931.227 44.5795C911.56 44.5795 889.116 55.5436 889.116 98.1561C889.116 133.768 908.783 162.003 941.639 162.003C953.614 162.003 981.35 156.188 981.35 106.719H981.379Z" fill="white"/>
<path d="M1074.45 112.39C1074.45 137.211 1079.43 147.654 1087.82 154.511C1095.51 160.846 1103.38 161.54 1109.22 161.54C1116.74 161.54 1125.99 159.139 1132.82 152.283C1142.22 142.881 1142.74 127.462 1142.74 109.844V88.4366C1142.74 62.4294 1142.74 57.6271 1142.39 52.1595C1142.05 46.3448 1140.69 43.5965 1135.05 42.4104C1133.69 42.0633 1130.77 41.8897 1128.89 41.8897C1127.01 41.8897 1125.96 41.5426 1125.96 40.3565C1125.96 39.1704 1127.15 38.8232 1129.55 38.8232C1138.29 38.8232 1149.07 39.344 1149.22 39.344C1151.27 39.344 1162.06 38.8232 1168.74 38.8232C1171.14 38.8232 1172.33 39.1704 1172.33 40.3565C1172.33 41.5426 1171.29 41.8897 1169.23 41.8897C1167.35 41.8897 1166.31 42.0633 1164.26 42.4104C1159.63 43.2783 1158.27 46.1712 1157.92 52.1595C1157.58 57.6271 1157.58 62.4294 1157.58 88.4366V106.749C1157.58 125.755 1155.7 145.948 1141.32 158.271C1129.17 168.715 1116.85 170.595 1105.72 170.595C1096.64 170.595 1080.21 170.074 1067.71 158.792C1058.98 150.923 1052.47 138.252 1052.47 113.431V88.4366C1052.47 62.4294 1052.47 57.6271 1052.12 52.1595C1051.78 46.3448 1050.42 43.5965 1044.78 42.4104C1043.42 42.0633 1040.5 41.8897 1038.1 41.8897C1036.22 41.8897 1035.18 41.5426 1035.18 40.3565C1035.18 39.1704 1036.36 38.8232 1038.94 38.8232C1048.02 38.8232 1058.78 39.344 1063.93 39.344C1068.03 39.344 1078.82 38.8232 1084.98 38.8232C1087.55 38.8232 1088.74 39.1704 1088.74 40.3565C1088.74 41.5426 1087.73 41.8897 1085.99 41.8897C1084.11 41.8897 1083.07 42.0633 1081.02 42.4104C1076.39 43.2783 1075.03 46.1712 1074.68 52.1595C1074.34 57.6271 1074.34 62.4294 1074.34 88.4366V112.39H1074.45Z" fill="white"/>
<path d="M1210.01 166.111C1207.27 164.925 1206.77 164.057 1206.77 160.296C1206.77 150.894 1207.47 140.624 1207.64 137.876C1207.82 135.301 1208.34 133.421 1209.7 133.421C1211.23 133.421 1211.4 134.954 1211.4 136.343C1211.4 138.57 1212.1 142.158 1212.94 145.079C1216.7 157.75 1226.79 162.379 1237.4 162.379C1252.82 162.379 1260.34 151.936 1260.34 142.881C1260.34 134.491 1257.77 126.623 1243.56 115.485L1235.7 109.323C1216.87 94.5982 1210.36 82.6216 1210.36 68.7646C1210.36 49.9318 1226.1 36.4219 1249.9 36.4219C1256.41 36.4219 1261.53 37.1162 1265.63 37.7815C1268.55 38.3023 1270.75 38.823 1272.66 39.3148C1274.19 39.6619 1275.06 40.1827 1275.06 41.3687C1275.06 43.5963 1274.37 48.5721 1274.37 61.9084C1274.37 65.6692 1273.85 67.0288 1272.49 67.0288C1271.3 67.0288 1270.78 66.0163 1270.78 63.9624C1270.78 62.4291 1269.91 57.1062 1266.33 52.6511C1263.75 49.411 1258.81 44.2617 1247.67 44.2617C1235 44.2617 1227.31 51.6096 1227.31 61.8795C1227.31 69.7482 1231.24 75.7365 1245.44 86.527L1250.25 90.1142C1270.95 105.678 1278.3 117.51 1278.3 133.768C1278.3 143.691 1274.54 155.494 1262.22 163.536C1253.66 169.004 1244.09 170.566 1235 170.566C1225.08 170.566 1217.39 169.38 1210.01 166.111Z" fill="white"/>
<path d="M1377.71 118.551C1377.71 134.289 1377.71 147.828 1378.58 155.176C1379.1 159.978 1380.11 163.739 1385.26 164.404C1387.66 164.751 1391.42 165.098 1393.99 165.098C1395.87 165.098 1396.74 165.619 1396.74 166.458C1396.74 167.644 1395.38 168.165 1393.5 168.165C1382.19 168.165 1371.43 167.644 1366.63 167.644C1362.7 167.644 1351.91 168.165 1345.05 168.165C1342.83 168.165 1341.64 167.644 1341.64 166.458C1341.64 165.59 1342.34 165.098 1344.39 165.098C1346.96 165.098 1349.02 164.751 1350.55 164.404C1353.96 163.71 1355 159.949 1355.52 155.002C1356.39 147.799 1356.39 134.289 1356.39 118.551V48.3696C1349.88 48.5432 1339.27 48.8903 1330.88 49.0639C1320.96 49.411 1316.86 50.25 1314.28 54.0397C1312.57 56.6144 1311.71 58.6683 1311.36 60.028C1311.01 61.3877 1310.49 62.082 1309.48 62.082C1308.29 62.082 1307.95 61.2141 1307.95 59.3337C1307.95 56.5854 1311.19 41.0216 1311.53 39.6619C1312.05 37.4344 1312.55 36.4219 1313.59 36.4219C1314.95 36.4219 1316.65 38.1287 1320.93 38.4758C1325.91 38.9966 1332.39 39.3437 1338.06 39.3437H1405.82C1411.29 39.3437 1415.05 38.823 1417.62 38.4758C1420.2 37.9551 1421.56 37.608 1422.25 37.608C1423.44 37.608 1423.61 38.6494 1423.61 41.1952C1423.61 44.7824 1423.09 56.6144 1423.09 61.0405C1422.91 62.7473 1422.57 63.7888 1421.56 63.7888C1420.2 63.7888 1419.85 62.9209 1419.68 60.3751C1419.68 59.8544 1419.5 59.0155 1419.5 58.4948C1419.15 54.0397 1414.53 49.2375 1399.31 48.9192C1394.86 48.7457 1387.86 48.5721 1377.74 48.3985V118.58L1377.71 118.551Z" fill="white"/>
<path d="M1453.2 103.479C1453.2 74.2029 1472.55 36.3926 1523.88 36.3926C1566.49 36.3926 1593.01 61.2137 1593.01 100.413C1593.01 139.611 1565.62 170.595 1522.18 170.595C1473.07 170.595 1453.2 133.797 1453.2 103.508V103.479ZM1569.06 106.719C1569.06 68.3881 1546.99 44.5795 1518.91 44.5795C1499.24 44.5795 1476.83 55.5436 1476.83 98.1561C1476.83 133.768 1496.49 162.003 1529.35 162.003C1541.33 162.003 1569.06 156.188 1569.06 106.719Z" fill="white"/>
<path d="M1644.87 41.6868C1644.87 38.2732 1645.39 35.8721 1647.1 35.8721C1648.98 35.8721 1650.51 38.0996 1653.43 41.1661C1655.48 43.3936 1681.48 71.2813 1706.47 96.1024C1718.1 107.732 1742.08 133.247 1744.97 135.996L1743.26 58.2921C1743.09 47.8487 1741.56 44.6086 1737.45 42.8729C1734.88 41.8604 1730.77 41.8604 1728.37 41.8604C1726.32 41.8604 1725.62 41.3397 1725.62 40.3271C1725.62 38.9675 1727.5 38.7939 1730.07 38.7939C1738.98 38.7939 1747.2 39.3146 1750.78 39.3146C1752.66 39.3146 1759.17 38.7939 1767.56 38.7939C1769.79 38.7939 1771.49 38.9675 1771.49 40.3271C1771.49 41.3397 1770.48 41.8604 1768.43 41.8604C1766.72 41.8604 1765.36 41.8604 1763.31 42.3811C1758.51 43.7408 1757.15 47.3569 1756.97 56.9324C1756.28 93.0359 1755.79 128.821 1755.09 164.925C1755.09 168.685 1754.4 170.219 1752.87 170.219C1750.99 170.219 1748.93 168.338 1747.05 166.458C1736.26 156.188 1714.37 133.768 1696.58 116.121C1677.93 97.6356 1658.43 75.7363 1655.34 72.4673L1657.22 144.877C1657.57 158.242 1659.79 162.668 1663.21 163.883C1666.13 164.925 1669.37 165.069 1672.11 165.069C1673.99 165.069 1675.03 165.416 1675.03 166.429C1675.03 167.789 1673.5 168.136 1671.1 168.136C1659.97 168.136 1653.14 167.615 1649.87 167.615C1648.34 167.615 1640.3 168.136 1631.39 168.136C1629.16 168.136 1627.63 167.962 1627.63 166.429C1627.63 165.387 1628.67 165.069 1630.38 165.069C1632.61 165.069 1635.67 164.896 1638.07 164.201C1642.53 162.842 1643.22 157.866 1643.36 142.967C1643.88 106.69 1644.55 64.3961 1644.9 41.629L1644.87 41.6868Z" fill="white"/>
<path d="M699.729 225.039C699.324 225.039 699.18 225.184 699.006 225.675L694.755 236.958C693.974 238.925 693.569 240.834 693.569 241.789C693.569 243.206 694.292 244.248 696.721 244.248H697.907C698.862 244.248 699.093 244.393 699.093 244.884C699.093 245.521 698.63 245.665 697.762 245.665C695.246 245.665 691.833 245.434 689.404 245.434C688.536 245.434 684.198 245.665 680.091 245.665C679.078 245.665 678.587 245.521 678.587 244.884C678.587 244.421 679.049 244.248 679.686 244.248C680.409 244.248 681.334 244.161 681.971 244.103C685.615 243.64 687.09 240.95 688.681 236.987L708.493 187.402C709.447 185.117 709.997 184.249 710.691 184.249C711.327 184.249 711.877 184.972 712.658 186.766C714.538 191.105 727.177 223.303 732.238 235.309C735.246 242.425 737.531 243.525 739.18 243.93C740.366 244.161 741.552 244.248 742.506 244.248C743.142 244.248 743.518 244.393 743.518 244.884C743.518 245.521 742.795 245.665 739.903 245.665C737.011 245.665 730.734 245.665 724.429 245.521C723.012 245.434 722.607 245.376 722.607 244.884C722.607 244.479 722.925 244.248 723.706 244.161C724.256 244.016 724.805 243.293 724.429 242.339L718.124 225.589C717.98 225.184 717.719 225.039 717.343 225.039H699.729ZM715.839 221.105C716.244 221.105 716.302 220.873 716.244 220.642L709.129 201.144C708.898 200.42 708.58 200.189 708.261 201.144L701.002 220.555C700.915 220.873 701.002 221.105 701.32 221.105H715.839Z" fill="white"/>
<path d="M750.315 214.306C750.315 204.21 750.315 202.532 750.171 200.42C750.084 198.048 749.447 196.862 747.163 196.543C746.613 196.457 745.427 196.399 744.559 196.312C743.692 196.312 743.287 195.994 743.287 195.531C743.287 195.068 743.836 194.895 744.791 194.895C748.58 194.895 752.774 195.126 754.567 195.126C758.211 195.126 761.19 194.895 763.562 194.895C776.519 194.895 778.862 201.375 778.862 204.991C778.862 210.516 775.478 213.756 771.516 216.505C777.503 218.472 784.299 223.303 784.299 231.114C784.299 238.375 778.226 245.81 765.268 245.81C762.202 245.81 758.095 245.405 754.682 245.405C751.848 245.405 748.927 245.636 745.601 245.636C744.733 245.636 744.27 245.405 744.27 244.913C744.27 244.595 744.502 244.19 745.456 244.19C746.411 244.103 747.278 244.103 747.915 243.958C749.187 243.64 749.65 242.454 749.881 240.4C750.286 237.391 750.286 232.358 750.286 225.791V214.248L750.315 214.306ZM759.31 215.347C759.31 215.897 759.542 216.071 759.86 216.071C760.583 216.215 761.826 216.302 763.33 216.302C765.471 216.302 767.032 216.071 768.218 215.029C769.954 213.698 770.908 211.326 770.908 208.173C770.908 203.515 768.218 197.99 762.318 197.99C761.306 197.99 760.669 197.99 760.033 198.164C759.57 198.308 759.31 198.569 759.31 199.35V215.376V215.347ZM759.31 224.807C759.31 227.96 759.31 232.3 759.397 235.627C759.397 239.648 759.542 240.747 761.682 241.615C763.504 242.338 765.066 242.396 766.657 242.396C769.896 242.396 774.957 240.805 774.957 233.949C774.957 229.928 774.09 224.634 768.797 221.162C767.148 220.063 765.413 219.571 762.868 219.426C761.595 219.34 760.727 219.34 759.715 219.34C759.484 219.34 759.31 219.484 759.31 219.802V224.778V224.807Z" fill="white"/>
<path d="M792.861 220.324C792.861 208.492 800.757 193.94 821.523 193.94C838.877 193.94 849.463 204.586 849.463 219.051C849.463 234.441 838.645 246.533 820.887 246.533C801.075 246.533 792.861 232.243 792.861 220.324ZM839.195 221.597C839.195 207.306 830.981 197.528 819.47 197.528C811.747 197.528 803.041 201.462 803.041 218.067C803.041 231.809 810.532 242.859 823.634 242.859C828.436 242.859 839.195 240.892 839.195 221.626V221.597Z" fill="white"/>
<path d="M907.945 240.747C907.945 242.946 907.8 243.119 906.932 243.582C902.594 245.723 895.71 246.504 890.186 246.504C872.659 246.504 857.821 238.607 857.821 220.208C857.821 209.388 863.664 201.982 869.969 198.25C876.766 194.374 883.216 193.911 888.913 193.911C893.657 193.911 899.326 194.634 901.061 195.01C902.652 195.242 905.081 195.647 906.73 195.734C907.511 195.82 907.597 196.197 907.597 196.688C907.597 197.469 907.048 199.466 907.048 207.971C907.048 209.07 906.817 209.388 906.267 209.388C905.717 209.388 905.631 208.983 905.544 208.434C905.313 207.016 905.081 205.107 903.404 203.313C901.524 200.709 895.913 197.556 887.785 197.556C883.678 197.556 878.704 198.019 874.221 201.896C870.518 205.049 868.234 209.88 868.234 217.835C868.234 231.721 877.084 242.772 891.748 242.772C893.396 242.772 895.681 242.772 897.185 241.991C898.198 241.586 898.458 240.718 898.458 239.619V233.949C898.458 230.709 898.458 228.337 898.371 226.196C898.284 223.592 897.648 222.319 895.305 222.001C894.669 221.914 893.657 221.857 892.615 221.77C891.979 221.77 891.516 221.452 891.516 221.076C891.516 220.613 891.979 220.439 893.02 220.439C896.809 220.439 901.321 220.584 903.433 220.584C905.544 220.584 909.42 220.439 912.023 220.439C912.89 220.439 913.44 220.584 913.44 221.076C913.44 221.481 913.035 221.712 912.485 221.77C911.618 221.857 911.444 221.857 910.576 221.914C908.61 222.146 908.06 223.419 907.973 225.704C907.887 227.845 907.887 230.449 907.887 233.833V240.689L907.945 240.747Z" fill="white"/>
<path d="M931.314 229.002C930.996 229.002 930.851 229.147 930.678 229.552L927.207 238.144C926.571 239.793 926.166 241.471 926.166 242.252C926.166 244.219 928.624 244.306 930.099 244.306C931.054 244.306 931.285 244.624 931.285 244.942C931.285 245.492 930.735 245.666 930.012 245.666C927.554 245.666 924.72 245.434 922.29 245.434C921.509 245.434 917.547 245.666 913.931 245.666C913.064 245.666 912.659 245.521 912.659 244.942C912.659 244.537 913.064 244.219 913.613 244.219C918.588 243.756 919.687 242.802 921.509 238.231L938.255 198.685C939.673 194.982 940.454 193.478 941.321 193.478C941.957 193.478 942.362 194.201 943.143 195.937C944.474 199.813 956.159 226.717 960.584 236.842C963.1 242.773 965.096 243.785 966.744 244.103C967.467 244.248 968.653 244.248 969.347 244.248C970.215 244.248 970.533 244.566 970.533 244.971C970.533 245.434 970.215 245.695 969.203 245.695C965.877 245.695 957.605 245.839 952.63 245.55C951.907 245.463 951.444 245.318 951.444 244.913C951.444 244.595 951.762 244.451 952.167 244.277C952.89 244.046 953.44 243.814 952.948 242.859L947.569 229.523C947.482 229.205 947.25 229.06 946.932 229.06H931.314V229.002ZM945.457 225.068C945.862 225.068 945.862 224.923 945.775 224.663L939.615 208.55C939.383 207.913 939.152 207.768 938.834 208.55L932.587 224.663C932.5 224.895 932.587 225.068 932.905 225.068H945.457Z" fill="white"/>
<path d="M978.371 214.306C978.371 204.21 978.372 202.474 978.227 200.333C978.082 198.135 977.591 196.688 975.219 196.457L972.529 196.225C971.748 196.225 971.343 195.994 971.343 195.531C971.343 195.068 971.806 194.895 972.847 194.895C976.173 194.895 980.888 195.126 983.028 195.126C985.313 195.126 989.333 194.895 993.932 194.895C1003.25 194.895 1013.98 195.213 1021.41 202.619C1024.88 206.003 1028.12 211.616 1028.12 219.658C1028.12 227.7 1024.42 234.412 1020.54 238.288C1017.3 241.441 1010.5 246.186 997.489 246.186C992.428 246.186 986.21 245.405 982.797 245.405C980.888 245.405 976.636 245.636 973.715 245.636C972.76 245.636 972.385 245.405 972.385 244.913C972.385 244.595 972.789 244.19 973.57 244.19C974.351 244.19 975.161 244.103 976.029 243.958C978.719 243.495 978.4 236.697 978.4 226.109V214.277L978.371 214.306ZM987.685 221.741C987.685 228.857 987.771 233.833 987.858 235.077C987.945 236.957 988.003 239.011 988.726 240.14C989.507 241.412 992.428 242.743 997.489 242.743C1004.11 242.743 1008.45 241.47 1012.56 237.941C1016.9 234.325 1018.17 228.394 1018.17 221.509C1018.17 213.467 1014.7 208.173 1011.69 205.164C1005.7 199.321 998.184 198.366 992.978 198.366C991.56 198.366 989.044 198.597 988.552 199.002C987.829 199.552 987.685 199.726 987.685 213.438V221.741Z" fill="white"/>
<path d="M1036.48 220.324C1036.48 208.492 1044.37 193.94 1065.14 193.94C1082.49 193.94 1093.08 204.586 1093.08 219.051C1093.08 234.441 1082.26 246.533 1064.5 246.533C1044.69 246.533 1036.48 232.243 1036.48 220.324ZM1082.81 221.597C1082.81 207.306 1074.6 197.528 1063.09 197.528C1055.36 197.528 1046.66 201.462 1046.66 218.067C1046.66 231.809 1054.15 242.859 1067.25 242.859C1072.05 242.859 1082.81 240.892 1082.81 221.626V221.597Z" fill="white"/>
<path d="M1132.39 214.306C1132.39 204.21 1132.39 202.474 1132.21 200.333C1132.07 198.135 1131.58 196.688 1129.2 196.457L1126.51 196.225C1125.73 196.225 1125.33 195.994 1125.33 195.531C1125.33 195.068 1125.79 194.895 1126.83 194.895C1130.16 194.895 1134.87 195.126 1137.01 195.126C1139.3 195.126 1143.32 194.895 1147.92 194.895C1157.23 194.895 1167.96 195.213 1175.39 202.619C1178.86 206.003 1182.1 211.616 1182.1 219.658C1182.1 227.7 1178.4 234.412 1174.53 238.288C1171.29 241.441 1164.49 246.186 1151.47 246.186C1146.41 246.186 1140.19 245.405 1136.78 245.405C1134.9 245.405 1130.62 245.636 1127.7 245.636C1126.75 245.636 1126.37 245.405 1126.37 244.913C1126.37 244.595 1126.77 244.19 1127.56 244.19C1128.34 244.19 1129.15 244.103 1130.01 243.958C1132.7 243.495 1132.39 236.697 1132.39 226.109V214.277V214.306ZM1141.7 221.741C1141.7 228.857 1141.79 233.833 1141.84 235.077C1141.93 236.957 1141.99 239.011 1142.71 240.14C1143.49 241.412 1146.41 242.743 1151.47 242.743C1158.1 242.743 1162.44 241.47 1166.54 237.941C1170.88 234.325 1172.15 228.394 1172.15 221.509C1172.15 213.467 1168.68 208.173 1165.68 205.164C1159.69 199.321 1152.17 198.366 1146.96 198.366C1145.55 198.366 1143.03 198.597 1142.54 199.002C1141.81 199.552 1141.67 199.726 1141.67 213.438V221.741H1141.7Z" fill="white"/>
<path d="M1197.75 214.306C1197.75 204.037 1197.75 202.243 1197.58 200.015C1197.43 197.817 1196.85 196.949 1194.74 196.457C1194.11 196.313 1193.01 196.313 1192.05 196.226C1191.27 196.226 1190.87 195.994 1190.87 195.531C1190.87 195.069 1191.33 194.895 1192.46 194.895C1195.78 194.895 1198.94 195.126 1202.41 195.126C1204.55 195.126 1218.98 195.126 1220.25 195.04C1221.58 194.895 1222.77 194.721 1223.41 194.635C1223.81 194.548 1224.19 194.316 1224.5 194.316C1224.91 194.316 1224.97 194.635 1224.97 194.953C1224.97 195.416 1224.5 196.37 1224.33 199.205C1224.24 200.478 1224.19 201.809 1224.01 203.863C1224.01 204.268 1223.87 204.962 1223.23 204.962C1222.77 204.962 1222.6 204.557 1222.51 203.689C1222.51 203.371 1222.51 202.359 1222.1 201.491C1221.64 200.218 1221 199.524 1217.59 199.119C1216.26 198.974 1209.15 198.8 1207.56 198.8C1207.24 198.8 1207.09 199.032 1207.09 199.524V215.869C1207.09 216.331 1207.18 216.563 1207.56 216.563C1209.2 216.563 1216.78 216.563 1218.52 216.476C1220.48 216.331 1221.53 216.071 1222.13 215.377C1222.6 214.74 1222.91 214.509 1223.23 214.509C1223.55 214.509 1223.69 214.654 1223.69 215.059C1223.69 215.521 1223.38 217.026 1223.15 220.266C1223.15 221.597 1222.91 224.46 1222.91 225.01C1222.91 225.56 1222.83 226.283 1222.19 226.283C1221.73 226.283 1221.47 225.56 1221.47 225.184C1221.38 224.547 1221.38 224.171 1221.24 223.361C1220.83 221.857 1220.05 220.844 1217.3 220.584C1215.89 220.439 1209.26 220.353 1207.53 220.353C1207.12 220.353 1207.06 220.671 1207.06 221.076V226.196C1207.06 228.482 1206.98 234.007 1207.06 236.061C1207.21 240.719 1208.25 241.731 1215.51 241.731C1217.33 241.731 1220.25 241.731 1221.99 240.95C1223.81 240.082 1224.59 238.751 1225.14 235.887C1225.29 235.164 1225.46 234.788 1226.01 234.788C1226.56 234.788 1226.56 235.425 1226.56 236.119C1226.56 237.855 1226.01 242.686 1225.6 244.017C1225.14 245.752 1224.5 245.752 1221.9 245.752C1215.05 245.752 1209.12 245.347 1202.09 245.347C1199.25 245.347 1196.42 245.579 1193.09 245.579C1192.14 245.579 1191.68 245.347 1191.68 244.855C1191.68 244.537 1191.91 244.132 1192.86 244.132C1193.82 244.045 1194.69 244.045 1195.32 243.901C1196.74 243.583 1197.14 242.078 1197.37 239.706C1197.69 236.929 1197.69 231.808 1197.69 226.052V214.22L1197.75 214.306Z" fill="white"/>
<path d="M1270.98 225.039C1270.58 225.039 1270.43 225.184 1270.26 225.675L1266.01 236.958C1265.23 238.925 1264.82 240.834 1264.82 241.789C1264.82 243.206 1265.55 244.248 1267.98 244.248H1269.16C1270.12 244.248 1270.35 244.393 1270.35 244.884C1270.35 245.521 1269.88 245.665 1269.02 245.665C1266.5 245.665 1263.09 245.434 1260.66 245.434C1259.79 245.434 1255.45 245.665 1251.34 245.665C1250.3 245.665 1249.84 245.521 1249.84 244.884C1249.84 244.421 1250.3 244.248 1250.94 244.248C1251.66 244.248 1252.59 244.161 1253.22 244.103C1256.87 243.64 1258.34 240.95 1259.93 236.987L1279.75 187.402C1280.7 185.117 1281.25 184.249 1281.95 184.249C1282.58 184.249 1283.13 184.972 1283.91 186.766C1285.82 191.105 1298.43 223.303 1303.49 235.309C1306.5 242.425 1308.79 243.525 1310.43 243.93C1311.62 244.161 1312.81 244.248 1313.76 244.248C1314.4 244.248 1314.8 244.393 1314.8 244.884C1314.8 245.521 1314.08 245.665 1311.16 245.665C1308.24 245.665 1301.99 245.665 1295.68 245.521C1294.27 245.434 1293.86 245.376 1293.86 244.884C1293.86 244.479 1294.18 244.248 1294.96 244.161C1295.51 244.016 1296.06 243.293 1295.68 242.339L1289.38 225.589C1289.23 225.184 1288.97 225.039 1288.6 225.039H1270.98ZM1287.09 221.105C1287.5 221.105 1287.56 220.873 1287.5 220.642L1280.38 201.144C1280.15 200.42 1279.83 200.189 1279.52 201.144L1272.26 220.555C1272.17 220.873 1272.26 221.105 1272.57 221.105H1287.09Z" fill="white"/>
<path d="M1322.78 239.243C1315.93 233.486 1314.11 226.051 1314.11 219.427C1314.11 214.856 1315.61 206.871 1322.32 200.941C1327.53 196.457 1334.24 193.911 1344.51 193.911C1348.76 193.911 1351.45 194.143 1354.6 194.634C1357.29 195.039 1359.34 195.502 1361.45 195.734C1362.18 195.82 1362.5 196.139 1362.5 196.515C1362.5 197.064 1362.35 198.019 1362.18 200.391C1362.09 202.59 1362.09 206.466 1361.95 207.884C1361.86 208.896 1361.71 209.475 1361.08 209.475C1360.53 209.475 1360.21 208.925 1360.21 207.971C1360.12 206.003 1359.49 203.631 1357.61 201.722C1355.32 199.263 1350.03 197.527 1343.64 197.527C1337.88 197.527 1334.01 198.858 1331 201.462C1326.2 205.801 1324.69 212.05 1324.69 218.674C1324.69 234.238 1336.29 242.281 1346.24 242.281C1352.4 242.281 1355.87 241.644 1358.56 238.664C1359.75 237.392 1360.53 235.511 1360.85 234.094C1361.16 232.908 1361.4 232.676 1361.95 232.676C1362.41 232.676 1362.67 233.139 1362.67 233.689C1362.67 234.556 1361.8 240.545 1361.08 243.004C1360.76 244.19 1360.44 244.508 1359.26 244.971C1356.48 246.07 1351.27 246.475 1346.88 246.475C1337.42 246.475 1329.26 244.653 1322.81 239.214L1322.78 239.243Z" fill="white"/>
<path d="M1379.62 239.243C1372.76 233.486 1370.94 226.051 1370.94 219.427C1370.94 214.856 1372.44 206.871 1379.15 200.941C1384.36 196.457 1391.07 193.911 1401.34 193.911C1405.59 193.911 1408.28 194.143 1411.43 194.634C1414.12 195.039 1416.18 195.502 1418.29 195.734C1419.01 195.82 1419.33 196.139 1419.33 196.515C1419.33 197.064 1419.18 198.019 1419.01 200.391C1418.92 202.59 1418.92 206.466 1418.78 207.884C1418.69 208.896 1418.55 209.475 1417.91 209.475C1417.36 209.475 1417.04 208.925 1417.04 207.971C1416.96 206.003 1416.32 203.631 1414.44 201.722C1412.16 199.263 1406.86 197.527 1400.47 197.527C1394.71 197.527 1390.84 198.858 1387.83 201.462C1383.03 205.801 1381.53 212.05 1381.53 218.674C1381.53 234.238 1393.12 242.281 1403.07 242.281C1409.23 242.281 1412.7 241.644 1415.39 238.664C1416.58 237.392 1417.36 235.511 1417.68 234.094C1418 232.908 1418.23 232.676 1418.78 232.676C1419.24 232.676 1419.5 233.139 1419.5 233.689C1419.5 234.556 1418.63 240.545 1417.91 243.004C1417.59 244.19 1417.27 244.508 1416.09 244.971C1413.31 246.07 1408.11 246.475 1403.71 246.475C1394.25 246.475 1386.1 244.653 1379.65 239.214L1379.62 239.243Z" fill="white"/>
<path d="M1435.26 214.306C1435.26 204.036 1435.26 202.474 1435.09 200.246C1434.95 198.048 1434.22 196.92 1432.72 196.63C1432 196.486 1431.13 196.399 1430.26 196.312C1429.54 196.312 1429.16 196.081 1429.16 195.531C1429.16 195.126 1429.62 194.895 1430.75 194.895C1433.53 194.895 1438.24 195.126 1439.98 195.126C1441.57 195.126 1446.23 194.895 1448.89 194.895C1449.84 194.895 1450.22 195.126 1450.22 195.531C1450.22 196.081 1449.81 196.312 1449.12 196.312C1448.4 196.399 1448.11 196.399 1447.3 196.543C1445.42 196.862 1444.84 198.048 1444.69 200.333C1444.46 202.474 1444.46 204.036 1444.46 214.306V226.138C1444.46 232.444 1444.55 237.594 1444.87 240.429C1445.01 242.251 1445.59 243.669 1447.64 243.9C1448.68 244.132 1449.61 244.132 1450.65 244.219C1451.52 244.219 1451.84 244.624 1451.84 244.942C1451.84 245.405 1451.29 245.665 1450.51 245.665C1445.85 245.665 1441.34 245.434 1439.69 245.434C1438.36 245.434 1433.62 245.665 1430.84 245.665C1429.89 245.665 1429.42 245.434 1429.42 244.942C1429.42 244.624 1429.74 244.219 1430.61 244.219C1431.56 244.132 1432.11 244.132 1432.75 243.987C1434.08 243.669 1434.72 242.483 1434.89 240.602C1435.29 237.767 1435.29 232.705 1435.29 226.167V214.335L1435.26 214.306Z" fill="white"/>
<path d="M1467.4 214.306C1467.4 204.21 1467.4 202.474 1467.22 200.333C1467.08 198.135 1466.59 196.688 1464.22 196.457L1461.53 196.225C1460.75 196.225 1460.34 195.994 1460.34 195.531C1460.34 195.068 1460.8 194.895 1461.84 194.895C1465.17 194.895 1469.89 195.126 1472.03 195.126C1474.31 195.126 1478.33 194.895 1482.93 194.895C1492.24 194.895 1502.97 195.213 1510.41 202.619C1513.88 206.003 1517.12 211.616 1517.12 219.658C1517.12 227.7 1513.41 234.412 1509.54 238.288C1506.3 241.441 1499.5 246.186 1486.49 246.186C1481.43 246.186 1475.21 245.405 1471.79 245.405C1469.91 245.405 1465.63 245.636 1462.71 245.636C1461.76 245.636 1461.38 245.405 1461.38 244.913C1461.38 244.595 1461.79 244.19 1462.57 244.19C1463.35 244.19 1464.16 244.103 1465.03 243.958C1467.72 243.495 1467.4 236.697 1467.4 226.109V214.277V214.306ZM1476.71 221.741C1476.71 228.857 1476.8 233.833 1476.86 235.077C1476.94 236.957 1477 239.011 1477.72 240.14C1478.5 241.412 1481.43 242.743 1486.49 242.743C1493.11 242.743 1497.45 241.47 1501.56 237.941C1505.89 234.325 1507.17 228.394 1507.17 221.509C1507.17 213.467 1503.7 208.173 1500.69 205.164C1494.7 199.321 1487.18 198.366 1481.98 198.366C1480.56 198.366 1478.04 198.597 1477.55 199.002C1476.83 199.552 1476.68 199.726 1476.68 213.438V221.741H1476.71Z" fill="white"/>
<path d="M1532.76 214.306C1532.76 204.037 1532.76 202.243 1532.59 200.015C1532.45 197.817 1531.87 196.949 1529.76 196.457C1529.12 196.313 1528.02 196.313 1527.07 196.226C1526.28 196.226 1525.88 195.994 1525.88 195.531C1525.88 195.069 1526.34 194.895 1527.47 194.895C1530.8 194.895 1533.95 195.126 1537.42 195.126C1539.56 195.126 1553.99 195.126 1555.27 195.04C1556.6 194.895 1557.78 194.721 1558.42 194.635C1558.82 194.548 1559.2 194.316 1559.52 194.316C1559.92 194.316 1559.98 194.635 1559.98 194.953C1559.98 195.416 1559.52 196.37 1559.34 199.205C1559.26 200.478 1559.2 201.809 1559.03 203.863C1559.03 204.268 1558.88 204.962 1558.24 204.962C1557.78 204.962 1557.61 204.557 1557.52 203.689C1557.52 203.371 1557.52 202.359 1557.12 201.491C1556.65 200.218 1556.02 199.524 1552.6 199.119C1551.27 198.974 1544.16 198.8 1542.57 198.8C1542.25 198.8 1542.11 199.032 1542.11 199.524V215.869C1542.11 216.331 1542.19 216.563 1542.57 216.563C1544.22 216.563 1551.79 216.563 1553.53 216.476C1555.5 216.331 1556.54 216.071 1557.15 215.377C1557.61 214.74 1557.93 214.509 1558.24 214.509C1558.56 214.509 1558.71 214.654 1558.71 215.059C1558.71 215.521 1558.39 217.026 1558.16 220.266C1558.16 221.597 1557.93 224.46 1557.93 225.01C1557.93 225.56 1557.84 226.283 1557.2 226.283C1556.74 226.283 1556.48 225.56 1556.48 225.184C1556.39 224.547 1556.39 224.171 1556.25 223.361C1555.84 221.857 1555.06 220.844 1552.32 220.584C1550.9 220.439 1544.27 220.353 1542.54 220.353C1542.13 220.353 1542.08 220.671 1542.08 221.076V226.196C1542.08 228.482 1541.99 234.007 1542.08 236.061C1542.22 240.719 1543.26 241.731 1550.52 241.731C1552.34 241.731 1555.27 241.731 1557 240.95C1558.82 240.082 1559.6 238.751 1560.15 235.887C1560.3 235.164 1560.47 234.788 1561.02 234.788C1561.57 234.788 1561.57 235.425 1561.57 236.119C1561.57 237.855 1561.02 242.686 1560.62 244.017C1560.15 245.752 1559.52 245.752 1556.91 245.752C1550.06 245.752 1544.13 245.347 1537.1 245.347C1534.27 245.347 1531.43 245.579 1528.11 245.579C1527.15 245.579 1526.69 245.347 1526.69 244.855C1526.69 244.537 1526.92 244.132 1527.88 244.132C1528.83 244.045 1529.7 244.045 1530.33 243.901C1531.75 243.583 1532.16 242.078 1532.39 239.706C1532.71 236.929 1532.71 231.808 1532.71 226.052V214.22L1532.76 214.306Z" fill="white"/>
<path d="M1576.5 196.226C1576.5 194.721 1576.73 193.767 1577.51 193.767C1578.23 193.767 1578.84 194.548 1580.02 195.734C1581.3 196.833 1590.52 206.38 1601.8 216.968C1606.92 221.857 1615.77 230.854 1617.04 231.982L1616.41 202.764C1616.32 198.742 1615.77 197.383 1613.89 196.688C1612.85 196.37 1611.29 196.37 1610.33 196.283C1609.47 196.283 1609.15 195.878 1609.15 195.502C1609.15 194.953 1609.93 194.866 1610.88 194.866C1614.35 194.866 1617.91 195.097 1619.65 195.097C1620.52 195.097 1623.35 194.866 1626.68 194.866C1627.54 194.866 1628.18 195.011 1628.18 195.589C1628.18 195.994 1627.86 196.312 1626.99 196.312C1626.27 196.399 1625.72 196.399 1625.03 196.544C1622.97 197.093 1622.34 198.453 1622.25 202.243C1621.93 212.339 1621.79 229.957 1621.53 244.016C1621.53 245.839 1621.12 246.475 1620.52 246.475C1619.65 246.475 1618.61 245.607 1617.13 244.277C1612.71 240.256 1604.26 232.127 1597.72 225.791C1590.78 219.311 1583.03 211.095 1581.15 209.128L1581.87 236.524C1582.02 241.644 1582.83 243.322 1584.25 243.785C1585.43 244.19 1586.76 244.19 1587.95 244.248C1588.67 244.248 1589.13 244.479 1589.13 244.884C1589.13 245.434 1588.5 245.665 1587.54 245.665C1583.44 245.665 1580.69 245.434 1578.87 245.434C1578 245.434 1574.35 245.665 1570.97 245.665C1570.1 245.665 1569.47 245.579 1569.47 244.942C1569.47 244.537 1569.87 244.219 1570.57 244.219C1571.43 244.132 1572.62 244.132 1573.57 243.901C1575.54 243.351 1575.86 241.615 1575.95 235.772C1576.09 221.567 1576.5 205.049 1576.5 196.226Z" fill="white"/>
<path d="M1661.9 226.167C1661.9 232.155 1661.9 237.449 1662.22 240.371C1662.45 242.193 1662.86 243.698 1665 243.929C1665.95 244.074 1667.37 244.161 1668.38 244.247C1669.16 244.247 1669.57 244.566 1669.57 244.884C1669.57 245.347 1669.11 245.665 1668.15 245.665C1663.58 245.665 1658.75 245.434 1657.02 245.434C1655.43 245.434 1650.62 245.665 1647.93 245.665C1646.98 245.665 1646.52 245.347 1646.52 244.884C1646.52 244.566 1646.84 244.247 1647.7 244.247C1648.66 244.161 1649.44 244.161 1650.07 244.016C1651.58 243.698 1651.98 242.28 1652.21 240.313C1652.53 237.478 1652.53 232.415 1652.53 226.196V198.887C1649.93 198.887 1644.72 198.887 1641.57 199.118C1637.55 199.436 1636.37 199.755 1635.41 201.49C1634.95 202.358 1634.77 202.908 1634.46 203.689C1634.31 204.152 1634.05 204.47 1633.68 204.47C1633.21 204.47 1633.04 204.065 1633.04 203.284C1633.13 201.866 1634.37 196.254 1634.54 195.386C1634.69 194.432 1634.95 193.969 1635.32 193.969C1635.87 193.969 1636.51 194.605 1638.25 194.75C1640.15 194.981 1642.99 195.155 1645.36 195.155H1673.3C1675.5 195.155 1677 194.923 1678.04 194.75C1679.08 194.605 1679.63 194.432 1680.01 194.432C1680.47 194.432 1680.56 194.837 1680.56 196.023C1680.56 197.353 1680.24 202.271 1680.24 204.007C1680.15 204.73 1680.01 205.106 1679.52 205.106C1678.97 205.106 1678.88 204.701 1678.79 203.776C1678.79 203.544 1678.71 203.226 1678.71 202.908C1678.56 201.085 1676.89 199.292 1671.04 199.205C1669.16 199.06 1666.24 198.973 1661.88 198.887V226.196L1661.9 226.167Z" fill="white"/>
<path d="M1693.4 214.306C1693.4 204.037 1693.4 202.243 1693.23 200.015C1693.08 197.817 1692.5 196.949 1690.39 196.457C1689.76 196.313 1688.66 196.313 1687.7 196.226C1686.92 196.226 1686.52 195.994 1686.52 195.531C1686.52 195.069 1686.98 194.895 1688.11 194.895C1691.43 194.895 1694.59 195.126 1698.06 195.126C1700.2 195.126 1714.63 195.126 1715.9 195.04C1717.23 194.895 1718.42 194.721 1719.06 194.635C1719.46 194.548 1719.84 194.316 1720.15 194.316C1720.56 194.316 1720.62 194.635 1720.62 194.953C1720.62 195.416 1720.15 196.37 1719.98 199.205C1719.89 200.478 1719.84 201.809 1719.66 203.863C1719.66 204.268 1719.52 204.962 1718.88 204.962C1718.42 204.962 1718.25 204.557 1718.16 203.689C1718.16 203.371 1718.16 202.359 1717.75 201.491C1717.29 200.218 1716.65 199.524 1713.24 199.119C1711.91 198.974 1704.8 198.8 1703.21 198.8C1702.89 198.8 1702.74 199.032 1702.74 199.524V215.869C1702.74 216.331 1702.83 216.563 1703.21 216.563C1704.85 216.563 1712.43 216.563 1714.17 216.476C1716.13 216.331 1717.18 216.071 1717.78 215.377C1718.25 214.74 1718.56 214.509 1718.88 214.509C1719.2 214.509 1719.34 214.654 1719.34 215.059C1719.34 215.521 1719.03 217.026 1718.8 220.266C1718.8 221.597 1718.56 224.46 1718.56 225.01C1718.56 225.56 1718.48 226.283 1717.84 226.283C1717.38 226.283 1717.12 225.56 1717.12 225.184C1717.03 224.547 1717.03 224.171 1716.89 223.361C1716.48 221.857 1715.7 220.844 1712.95 220.584C1711.54 220.439 1704.91 220.353 1703.18 220.353C1702.77 220.353 1702.71 220.671 1702.71 221.076V226.196C1702.71 228.482 1702.63 234.007 1702.71 236.061C1702.86 240.719 1703.9 241.731 1711.16 241.731C1712.98 241.731 1715.9 241.731 1717.64 240.95C1719.46 240.082 1720.24 238.751 1720.79 235.887C1720.94 235.164 1721.11 234.788 1721.66 234.788C1722.21 234.788 1722.21 235.425 1722.21 236.119C1722.21 237.855 1721.66 242.686 1721.25 244.017C1720.79 245.752 1720.15 245.752 1717.55 245.752C1710.7 245.752 1704.77 245.347 1697.74 245.347C1694.9 245.347 1692.07 245.579 1688.74 245.579C1687.79 245.579 1687.33 245.347 1687.33 244.855C1687.33 244.537 1687.56 244.132 1688.51 244.132C1689.47 244.045 1690.34 244.045 1690.97 243.901C1692.39 243.583 1692.79 242.078 1693.02 239.706C1693.34 236.929 1693.34 231.808 1693.34 226.052V214.22L1693.4 214.306Z" fill="white"/>
<path d="M1733.02 244.768C1731.93 244.306 1731.69 243.814 1731.69 242.483C1731.69 238.462 1731.93 234.499 1732.01 233.313C1732.1 232.213 1732.33 231.577 1732.88 231.577C1733.52 231.577 1733.6 232.126 1733.66 232.676C1733.75 233.544 1733.75 234.73 1734.12 235.829C1735.54 240.95 1739.88 243.091 1744.39 243.091C1750.7 243.091 1753.56 239.214 1753.56 235.743C1753.56 232.589 1752.61 229.581 1746.76 225.328L1743.44 222.811C1735.63 216.881 1733.08 212.397 1733.08 206.871C1733.08 199.437 1739.47 193.911 1749.34 193.911C1752.49 193.911 1754.4 194.316 1756.37 194.634C1757.46 194.779 1758.42 195.039 1759.2 195.097C1759.84 195.184 1759.98 195.502 1759.98 195.965C1759.98 197.064 1759.66 198.974 1759.66 204.326C1759.66 205.83 1759.43 206.38 1758.88 206.38C1758.42 206.38 1758.16 205.917 1758.1 205.049C1758.04 204.181 1757.55 202.272 1756.51 200.796C1755.32 198.974 1753.13 197.238 1748.61 197.238C1743.41 197.238 1740.4 200.073 1740.4 203.95C1740.4 206.871 1741.82 209.475 1747.52 213.351L1749.71 214.856C1758.56 220.844 1761.4 225.502 1761.4 231.895C1761.4 236.003 1759.66 240.661 1754.6 243.814C1751.04 245.955 1747.02 246.504 1743.41 246.504C1739.16 246.504 1735.97 246.041 1733 244.768H1733.02Z" fill="white"/>
<path d="M688.854 284.546C687.784 281.682 686.974 279.917 685.731 279.194C684.834 278.673 683.417 278.557 682.694 278.471C681.884 278.471 681.45 278.21 681.45 277.661C681.45 277.111 682.086 276.851 683.243 276.851C687.437 276.851 691.891 277.111 692.672 277.111C693.655 277.111 697.473 276.851 701.927 276.851C702.997 276.851 703.518 277.198 703.518 277.661C703.518 278.21 702.997 278.471 702.188 278.471C701.465 278.557 701.117 278.557 700.221 278.818C699.498 278.991 699.237 279.628 699.237 280.409C699.237 281.392 700.047 283.707 701.031 287.178C702.274 291.72 709.303 313.619 711.009 318.537L726.049 279.888C726.859 277.747 727.466 277.14 728.102 277.14C728.912 277.14 729.346 278.297 730.416 280.698L746.7 318.19C748.406 312.578 754.278 293.977 756.852 285.327C757.488 283.36 757.748 281.942 757.748 280.872C757.748 279.541 757.025 278.471 753.844 278.471C753.121 278.471 752.513 278.123 752.513 277.661C752.513 277.198 753.034 276.851 754.306 276.851C758.587 276.851 762.058 277.111 762.752 277.111C763.273 277.111 767.032 276.851 769.693 276.851C770.59 276.851 771.111 277.198 771.111 277.661C771.111 278.21 770.677 278.471 770.04 278.471C769.231 278.557 768.161 278.557 767.293 278.905C765.326 279.541 764.429 282.116 762.752 286.658C759.108 296.088 751.096 319.521 746.902 331.353C745.919 334.014 745.485 335.085 744.502 335.085C743.605 335.085 743.171 334.101 741.927 331.44L725.644 294.295C723.764 299.097 713.988 323.86 710.604 331.064C709.187 334.101 708.637 335.085 707.654 335.085C706.757 335.085 706.41 334.188 705.601 331.96L688.854 284.488V284.546Z" fill="white"/>
<path d="M781.349 298.779C781.349 287.207 781.349 285.414 781.176 282.926C781.002 280.438 780.192 279.194 778.515 278.818C777.705 278.644 776.722 278.557 775.767 278.471C774.957 278.471 774.523 278.21 774.523 277.574C774.523 277.14 775.044 276.851 776.317 276.851C779.44 276.851 784.762 277.111 786.729 277.111C788.522 277.111 793.757 276.851 796.794 276.851C797.864 276.851 798.298 277.111 798.298 277.574C798.298 278.21 797.864 278.471 797.054 278.471C796.244 278.557 795.897 278.557 795.001 278.731C792.86 279.078 792.253 280.438 792.051 283.012C791.79 285.414 791.79 287.207 791.79 298.779V312.144C791.79 319.261 791.877 325.046 792.224 328.258C792.398 330.312 793.034 331.903 795.348 332.163C796.505 332.423 797.575 332.423 798.732 332.51C799.715 332.51 800.062 332.944 800.062 333.32C800.062 333.841 799.426 334.13 798.558 334.13C793.294 334.13 788.233 333.87 786.353 333.87C784.849 333.87 779.498 334.13 776.374 334.13C775.304 334.13 774.784 333.87 774.784 333.32C774.784 332.973 775.131 332.51 776.114 332.51C777.184 332.423 777.792 332.423 778.515 332.25C780.019 331.903 780.742 330.543 780.915 328.431C781.349 325.22 781.349 319.521 781.349 312.144V298.779Z" fill="white"/>
<path d="M838.154 312.144C838.154 318.914 838.154 324.873 838.501 328.171C838.761 330.225 839.224 331.903 841.624 332.192C842.695 332.366 844.285 332.453 845.442 332.539C846.339 332.539 846.773 332.887 846.773 333.263C846.773 333.812 846.252 334.16 845.182 334.16C840.005 334.16 834.596 333.899 832.629 333.899C830.836 333.899 825.428 334.16 822.391 334.16C821.321 334.16 820.8 333.812 820.8 333.263C820.8 332.916 821.147 332.539 822.13 332.539C823.201 332.453 824.097 332.453 824.791 332.279C826.498 331.932 826.932 330.312 827.192 328.084C827.539 324.873 827.539 319.174 827.539 312.144V281.335C824.589 281.335 818.718 281.335 815.16 281.595C810.619 281.943 809.289 282.319 808.219 284.257C807.698 285.24 807.496 285.848 807.148 286.745C806.975 287.265 806.715 287.642 806.252 287.642C805.702 287.642 805.529 287.208 805.529 286.311C805.616 284.72 807.033 278.384 807.235 277.401C807.409 276.33 807.669 275.81 808.132 275.81C808.768 275.81 809.462 276.533 811.429 276.706C813.569 276.967 816.78 277.14 819.441 277.14H850.966C853.454 277.14 855.16 276.88 856.317 276.706C857.474 276.533 858.11 276.359 858.544 276.359C859.065 276.359 859.181 276.793 859.181 278.153C859.181 279.657 858.833 285.183 858.833 287.15C858.747 287.96 858.573 288.394 858.024 288.394C857.387 288.394 857.301 287.96 857.214 286.889C857.214 286.629 857.127 286.253 857.127 285.906C856.954 283.852 855.073 281.798 848.479 281.711C846.339 281.538 843.042 281.451 838.154 281.364V312.173V312.144Z" fill="white"/>
<path d="M913.584 300.746C913.845 300.746 914.105 300.573 914.105 300.226V298.635C914.105 287.15 914.105 285.183 913.931 282.781C913.758 280.294 913.122 279.31 910.548 278.76C909.911 278.673 908.581 278.587 907.597 278.5C906.614 278.5 906.18 278.153 906.18 277.603C906.18 277.053 906.701 276.88 907.771 276.88C912.138 276.88 917.373 277.14 919.34 277.14C920.931 277.14 926.629 276.88 929.839 276.88C930.909 276.88 931.343 277.053 931.343 277.603C931.343 278.153 930.996 278.5 930.013 278.5C929.203 278.587 928.595 278.587 927.699 278.76C925.558 279.021 924.951 280.178 924.749 282.781C924.575 285.183 924.575 287.236 924.575 298.808V312.173C924.575 319.203 924.575 324.902 925.009 328.113C925.182 330.341 925.732 331.932 928.046 332.308C929.116 332.482 930.909 332.482 931.95 332.568C932.847 332.568 933.194 333.002 933.194 333.378C933.194 333.899 932.558 334.188 931.69 334.188C926.513 334.188 921.018 333.928 918.964 333.928C917.287 333.928 912.196 334.188 908.899 334.188C907.742 334.188 907.308 333.928 907.308 333.378C907.308 333.031 907.568 332.568 908.552 332.568C909.622 332.482 910.605 332.482 911.299 332.308C912.89 331.961 913.353 330.341 913.613 328.026C914.047 324.902 914.047 319.29 914.047 312.347V305.838C914.047 305.491 913.787 305.404 913.527 305.404H884.691C884.43 305.404 884.17 305.491 884.17 305.838V312.607C884.17 319.637 884.17 324.902 884.604 328.2C884.777 330.341 885.414 331.932 887.727 332.221C888.884 332.482 890.475 332.482 891.545 332.568C892.442 332.568 892.876 333.002 892.876 333.378C892.876 333.899 892.239 334.188 891.285 334.188C886.31 334.188 880.612 333.928 878.646 333.928C877.055 333.928 871.531 334.188 868.407 334.188C867.51 334.188 866.903 333.928 866.903 333.378C866.903 333.031 867.163 332.568 868.147 332.568C869.304 332.482 870.2 332.482 870.894 332.308C872.485 331.961 873.035 330.254 873.208 328.026C873.642 324.902 873.642 319.203 873.642 312.173V298.808C873.642 287.323 873.642 285.269 873.468 282.868C873.295 280.294 872.659 279.31 869.998 278.76C869.361 278.587 868.205 278.587 867.134 278.5C866.151 278.5 865.804 278.153 865.804 277.603C865.804 277.053 866.44 276.88 867.395 276.88C871.675 276.88 876.824 277.14 878.877 277.14C880.931 277.14 886.166 276.88 889.289 276.88C890.533 276.88 890.996 277.14 890.996 277.69C890.996 278.24 890.359 278.5 889.578 278.5C888.855 278.587 887.901 278.673 887.265 278.76C885.124 279.021 884.517 280.265 884.315 282.868C884.141 285.269 884.141 287.497 884.141 298.635V300.226C884.141 300.573 884.401 300.746 884.662 300.746H913.498H913.584Z" fill="white"/>
<path d="M978.921 292.646C978.921 279.107 978.921 276.619 978.748 273.755C978.574 270.718 977.851 269.3 974.93 268.693C974.207 268.519 972.703 268.433 971.459 268.433C970.476 268.433 969.955 268.259 969.955 267.623C969.955 266.986 970.591 266.812 971.922 266.812C976.636 266.812 982.247 267.073 984.041 267.073C988.408 267.073 991.879 266.812 994.915 266.812C1011.03 266.812 1013.89 275.462 1013.89 280.178C1013.89 287.468 1009.7 291.836 1004.81 295.77C1012.1 298.258 1021 304.594 1021 315.008C1021 324.526 1013.6 334.42 997.229 334.42C993.122 334.42 989.044 333.899 984.33 333.899C980.772 333.899 977.128 334.159 973.108 334.159C971.951 334.159 971.314 333.899 971.314 333.263C971.314 332.829 971.662 332.539 972.732 332.539C974.062 332.539 975.306 332.366 976.116 332.105C977.822 331.585 978.169 329.878 978.516 327.303C978.95 323.571 978.95 316.542 978.95 308.326V292.646H978.921ZM989.594 294.15C989.594 294.874 989.854 295.047 990.23 295.134C991.04 295.308 992.37 295.394 994.424 295.394C997.374 295.394 999.312 295.047 1000.84 293.717C1003.16 291.836 1004.49 288.625 1004.49 284.286C1004.49 278.326 1001.02 270.486 993.354 270.486C992.11 270.486 991.3 270.486 990.404 270.66C989.767 270.834 989.594 271.181 989.594 272.164V294.15ZM989.594 306.272V320.794C989.594 326.667 989.854 328.2 992.717 329.357C995.118 330.341 997.172 330.428 999.225 330.428C1003.25 330.428 1010.01 328.287 1010.01 319.029C1010.01 313.504 1008.13 306.04 1001.37 301.296C999.485 299.965 997.461 299.329 993.961 299.155C992.37 299.068 991.474 299.068 990.143 299.068C989.796 299.068 989.623 299.242 989.623 299.705V306.301L989.594 306.272Z" fill="white"/>
<path d="M1039.2 298.779C1039.2 287.207 1039.2 285.153 1039.02 282.665C1038.85 280.178 1038.21 279.194 1035.81 278.644C1035.09 278.471 1033.85 278.471 1032.78 278.384C1031.88 278.384 1031.44 278.124 1031.44 277.574C1031.44 277.024 1031.97 276.851 1033.24 276.851C1036.97 276.851 1040.53 277.111 1044.46 277.111C1046.86 277.111 1063.14 277.111 1064.59 277.024C1066.09 276.851 1067.42 276.677 1068.15 276.59C1068.58 276.504 1069.04 276.243 1069.39 276.243C1069.83 276.243 1069.91 276.59 1069.91 276.966C1069.91 277.516 1069.39 278.558 1069.19 281.769C1069.1 283.186 1069.02 284.719 1068.84 287.034C1068.84 287.468 1068.67 288.278 1067.95 288.278C1067.42 288.278 1067.22 287.844 1067.14 286.86C1067.14 286.513 1067.14 285.356 1066.7 284.372C1066.18 282.955 1065.46 282.145 1061.64 281.711C1060.14 281.537 1052.12 281.364 1050.33 281.364C1049.98 281.364 1049.81 281.624 1049.81 282.174V300.601C1049.81 301.151 1049.9 301.411 1050.33 301.411C1052.21 301.411 1060.74 301.411 1062.71 301.325C1064.94 301.151 1066.09 300.891 1066.82 300.081C1067.34 299.358 1067.71 299.097 1068.06 299.097C1068.41 299.097 1068.58 299.271 1068.58 299.734C1068.58 300.254 1068.23 301.961 1067.95 305.606C1067.95 307.11 1067.69 310.322 1067.69 310.958C1067.69 311.594 1067.6 312.376 1066.88 312.376C1066.35 312.376 1066.07 311.566 1066.07 311.132C1065.98 310.408 1065.98 309.974 1065.81 309.078C1065.37 307.4 1064.47 306.243 1061.35 305.953C1059.76 305.78 1052.27 305.693 1050.3 305.693C1049.87 305.693 1049.78 306.04 1049.78 306.503V312.289C1049.78 314.863 1049.7 321.112 1049.78 323.426C1049.96 328.692 1051.11 329.849 1059.3 329.849C1061.35 329.849 1064.65 329.849 1066.59 328.952C1068.64 327.968 1069.54 326.464 1070.14 323.253C1070.32 322.443 1070.49 322.009 1071.13 322.009C1071.76 322.009 1071.76 322.732 1071.76 323.513C1071.76 325.48 1071.13 330.919 1070.69 332.423C1070.17 334.391 1069.45 334.391 1066.5 334.391C1058.75 334.391 1052.07 333.957 1044.14 333.957C1040.93 333.957 1037.72 334.217 1033.99 334.217C1032.92 334.217 1032.4 333.957 1032.4 333.407C1032.4 333.06 1032.66 332.597 1033.73 332.597C1034.8 332.51 1035.78 332.51 1036.48 332.337C1038.07 331.989 1038.53 330.283 1038.79 327.621C1039.14 324.497 1039.14 318.711 1039.14 312.202V298.837L1039.2 298.779Z" fill="white"/>
<path d="M1088.54 278.384C1088.54 276.677 1088.8 275.636 1089.7 275.636C1090.51 275.636 1091.2 276.533 1092.53 277.863C1093.95 279.107 1104.36 289.898 1117.11 301.817C1122.9 307.342 1132.88 317.496 1134.29 318.74L1133.57 285.79C1133.48 281.248 1132.85 279.744 1130.71 278.934C1129.55 278.587 1127.76 278.587 1126.69 278.5C1125.7 278.5 1125.36 278.066 1125.36 277.603C1125.36 276.966 1126.25 276.88 1127.32 276.88C1131.23 276.88 1135.25 277.14 1137.22 277.14C1138.2 277.14 1141.41 276.88 1145.14 276.88C1146.12 276.88 1146.85 277.053 1146.85 277.69C1146.85 278.124 1146.5 278.5 1145.52 278.5C1144.71 278.587 1144.1 278.587 1143.29 278.76C1140.98 279.397 1140.25 280.901 1140.17 285.182C1139.82 296.58 1139.64 316.426 1139.36 332.279C1139.36 334.333 1138.92 335.027 1138.2 335.027C1137.22 335.027 1136.06 334.044 1134.38 332.539C1129.41 327.997 1119.86 318.827 1112.49 311.71C1104.65 304.42 1095.91 295.134 1093.8 292.906L1094.61 323.803C1094.79 329.588 1095.68 331.469 1097.27 331.99C1098.6 332.424 1100.11 332.424 1101.47 332.51C1102.28 332.51 1102.8 332.771 1102.8 333.234C1102.8 333.87 1102.07 334.13 1101 334.13C1096.38 334.13 1093.25 333.87 1091.2 333.87C1090.22 333.87 1086.14 334.13 1082.29 334.13C1081.31 334.13 1080.58 334.044 1080.58 333.32C1080.58 332.886 1081.02 332.51 1081.83 332.51C1082.81 332.424 1084.14 332.424 1085.21 332.163C1087.44 331.527 1087.79 329.588 1087.87 322.993C1088.05 306.966 1088.51 288.365 1088.51 278.384H1088.54Z" fill="white"/>
<path d="M1192.72 292.646C1192.72 279.107 1192.72 276.619 1192.54 273.755C1192.37 270.718 1191.65 269.3 1188.73 268.693C1188 268.519 1186.5 268.433 1185.26 268.433C1184.27 268.433 1183.75 268.259 1183.75 267.623C1183.75 266.986 1184.39 266.812 1185.72 266.812C1190.43 266.812 1196.04 267.073 1198.53 267.073C1201.28 267.073 1206.89 266.812 1212.24 266.812C1223.38 266.812 1238.24 266.812 1247.93 276.967C1252.39 281.595 1256.58 289.001 1256.58 299.589C1256.58 310.814 1251.87 319.348 1246.86 324.439C1242.75 328.634 1233.5 334.94 1217.04 334.94C1213.83 334.94 1210.19 334.68 1206.8 334.42C1203.42 334.159 1200.3 333.899 1198.07 333.899C1197.09 333.899 1195.12 333.899 1192.98 333.986C1190.92 333.986 1188.61 334.159 1186.85 334.159C1185.69 334.159 1185.05 333.899 1185.05 333.263C1185.05 332.829 1185.4 332.539 1186.47 332.539C1187.8 332.539 1188.87 332.366 1189.68 332.192C1191.47 331.845 1191.91 329.878 1192.26 327.303C1192.69 323.571 1192.69 316.542 1192.69 308.326V292.646H1192.72ZM1203.85 302.453C1203.85 311.884 1203.94 318.74 1204.03 320.447C1204.11 322.675 1204.29 326.233 1205.01 327.216C1206.17 328.894 1209.64 330.775 1216.67 330.775C1225.75 330.775 1231.79 328.981 1237.14 324.352C1242.84 319.463 1244.63 311.363 1244.63 302.193C1244.63 290.881 1239.92 283.591 1236.1 279.917C1227.92 272.078 1217.77 271.007 1210.82 271.007C1209.03 271.007 1205.76 271.268 1205.04 271.644C1204.23 271.991 1203.97 272.454 1203.97 273.437C1203.88 276.475 1203.88 284.228 1203.88 291.258V302.482L1203.85 302.453Z" fill="white"/>
<path d="M1266.15 305.549C1266.15 292.183 1275.06 275.81 1298.46 275.81C1318.04 275.81 1329.99 287.844 1329.99 304.131C1329.99 321.489 1317.78 335.114 1297.77 335.114C1275.41 335.114 1266.15 319.001 1266.15 305.549ZM1318.42 306.966C1318.42 290.853 1309.16 279.802 1296.15 279.802C1287.41 279.802 1277.64 284.257 1277.64 302.945C1277.64 318.451 1286.08 330.919 1300.86 330.919C1306.3 330.919 1318.39 328.692 1318.39 306.966H1318.42Z" fill="white"/>
<path d="M1407.47 324.353C1408.19 329.068 1408.97 331.122 1411.29 331.845C1413.51 332.482 1415.02 332.482 1416.09 332.569C1416.9 332.569 1417.42 332.829 1417.42 333.292C1417.42 333.928 1416.52 334.189 1415.37 334.189C1412.53 334.189 1402.55 334.015 1398.36 333.639C1396.65 333.552 1396.13 333.292 1396.13 332.829C1396.13 332.482 1396.48 332.019 1397.03 331.845C1397.67 331.585 1397.84 330.949 1397.46 328.547L1393.1 296.118L1376 329.791C1374.21 333.436 1373.77 334.073 1373.17 334.073C1372.36 334.073 1371.66 332.655 1370.22 330.167C1368.16 326.609 1362.21 315.645 1360.88 313.07C1360.07 311.393 1355.44 302.02 1352.95 296.87L1349.13 325.539C1348.96 327.332 1348.96 328.403 1348.96 329.56C1348.96 331.151 1349.86 331.874 1351.27 332.221C1352.69 332.482 1353.67 332.482 1354.57 332.569C1355.29 332.569 1355.73 332.916 1355.73 333.292C1355.73 334.015 1355.09 334.189 1353.93 334.189C1350.55 334.189 1346.99 333.928 1345.29 333.928C1343.7 333.928 1339.85 334.189 1337.27 334.189C1336.55 334.189 1335.94 334.015 1335.94 333.292C1335.94 332.945 1336.38 332.569 1337.19 332.569C1337.82 332.482 1338.43 332.482 1339.5 332.395C1341.82 331.961 1342.45 329.184 1342.89 326.175L1350.46 277.546C1350.81 276.041 1351.27 275.318 1351.88 275.318C1352.6 275.318 1353.04 275.752 1354.19 277.806L1375.74 319.203L1397.12 277.256C1397.93 276.012 1398.27 275.289 1399 275.289C1399.81 275.289 1400.24 276.099 1400.5 277.777L1407.44 324.353H1407.47Z" fill="white"/>
<path d="M1429.8 298.779C1429.8 287.207 1429.8 285.414 1429.62 282.926C1429.45 280.438 1428.64 279.194 1426.96 278.818C1426.15 278.644 1425.17 278.557 1424.22 278.471C1423.41 278.471 1422.97 278.21 1422.97 277.574C1422.97 277.14 1423.49 276.851 1424.77 276.851C1427.89 276.851 1433.21 277.111 1435.18 277.111C1436.97 277.111 1442.21 276.851 1445.24 276.851C1446.31 276.851 1446.75 277.111 1446.75 277.574C1446.75 278.21 1446.31 278.471 1445.5 278.471C1444.69 278.557 1444.35 278.557 1443.45 278.731C1441.31 279.078 1440.7 280.438 1440.5 283.012C1440.24 285.414 1440.24 287.207 1440.24 298.779V312.144C1440.24 319.261 1440.33 325.046 1440.67 328.258C1440.85 330.312 1441.48 331.903 1443.8 332.163C1444.95 332.423 1446.02 332.423 1447.18 332.51C1448.16 332.51 1448.51 332.944 1448.51 333.32C1448.51 333.841 1447.88 334.13 1447.01 334.13C1441.74 334.13 1436.68 333.87 1434.8 333.87C1433.3 333.87 1427.95 334.13 1424.82 334.13C1423.75 334.13 1423.23 333.87 1423.23 333.32C1423.23 332.973 1423.58 332.51 1424.56 332.51C1425.63 332.423 1426.27 332.423 1426.96 332.25C1428.47 331.903 1429.19 330.543 1429.36 328.431C1429.8 325.22 1429.8 319.521 1429.8 312.144V298.779Z" fill="white"/>
<path d="M1464.71 278.384C1464.71 276.677 1464.97 275.636 1465.87 275.636C1466.67 275.636 1467.37 276.533 1468.7 277.863C1470.12 279.107 1480.53 289.898 1493.28 301.817C1499.07 307.342 1509.05 317.496 1510.46 318.74L1509.74 285.79C1509.65 281.248 1509.02 279.744 1506.88 278.934C1505.72 278.587 1503.93 278.587 1502.86 278.5C1501.87 278.5 1501.53 278.066 1501.53 277.603C1501.53 276.966 1502.42 276.88 1503.49 276.88C1507.4 276.88 1511.42 277.14 1513.39 277.14C1514.37 277.14 1517.58 276.88 1521.31 276.88C1522.29 276.88 1523.02 277.053 1523.02 277.69C1523.02 278.124 1522.67 278.5 1521.69 278.5C1520.88 278.587 1520.27 278.587 1519.46 278.76C1517.15 279.397 1516.42 280.901 1516.34 285.182C1515.99 296.58 1515.81 316.426 1515.53 332.279C1515.53 334.333 1515.09 335.027 1514.37 335.027C1513.39 335.027 1512.23 334.044 1510.55 332.539C1505.58 327.997 1496.03 318.827 1488.66 311.71C1480.82 304.42 1472.08 295.134 1469.97 292.906L1470.78 323.803C1470.96 329.588 1471.85 331.469 1473.44 331.99C1474.77 332.424 1476.28 332.424 1477.64 332.51C1478.45 332.51 1478.97 332.771 1478.97 333.234C1478.97 333.87 1478.24 334.13 1477.17 334.13C1472.55 334.13 1469.42 333.87 1467.37 333.87C1466.39 333.87 1462.28 334.13 1458.46 334.13C1457.48 334.13 1456.75 334.044 1456.75 333.32C1456.75 332.886 1457.19 332.51 1458 332.51C1458.98 332.424 1460.31 332.424 1461.38 332.163C1463.61 331.527 1463.96 329.588 1464.04 322.993C1464.22 306.966 1464.68 288.365 1464.68 278.384H1464.71Z" fill="white"/>
<path d="M1588.84 328.605C1588.84 331.093 1588.67 331.267 1587.69 331.816C1582.8 334.217 1575.05 335.114 1568.8 335.114C1549.05 335.114 1532.3 326.204 1532.3 305.462C1532.3 293.254 1538.9 284.893 1546.01 280.699C1553.67 276.33 1560.96 275.81 1567.38 275.81C1572.73 275.81 1579.13 276.62 1581.09 277.054C1582.89 277.314 1585.63 277.777 1587.51 277.864C1588.41 277.95 1588.5 278.384 1588.5 278.934C1588.5 279.831 1587.86 282.058 1587.86 291.663C1587.86 292.907 1587.6 293.254 1586.96 293.254C1586.33 293.254 1586.24 292.82 1586.16 292.183C1585.89 290.592 1585.63 288.452 1583.75 286.398C1581.61 283.447 1575.31 279.889 1566.14 279.889C1561.51 279.889 1555.9 280.438 1550.84 284.778C1546.65 288.336 1544.07 293.775 1544.07 302.771C1544.07 318.451 1554.05 330.919 1570.59 330.919C1572.47 330.919 1575.05 330.919 1576.73 330.023C1577.88 329.589 1578.14 328.605 1578.14 327.361V320.939C1578.14 317.294 1578.14 314.603 1578.06 312.202C1577.97 309.252 1577.25 307.834 1574.59 307.487C1573.86 307.4 1572.71 307.313 1571.55 307.227C1570.83 307.227 1570.31 306.879 1570.31 306.417C1570.31 305.896 1570.83 305.693 1571.98 305.693C1576.26 305.693 1581.33 305.867 1583.73 305.867C1586.13 305.867 1590.49 305.693 1593.44 305.693C1594.43 305.693 1595.03 305.867 1595.03 306.417C1595.03 306.85 1594.6 307.14 1593.96 307.227C1592.98 307.313 1592.81 307.313 1591.82 307.4C1589.6 307.66 1588.99 309.107 1588.87 311.682C1588.79 314.083 1588.79 317.034 1588.79 320.852V328.605H1588.84Z" fill="white"/>
<path d="M1618.75 309.57C1618.75 320.534 1620.89 325.076 1624.88 328.084C1628.27 330.659 1631.74 330.948 1634.22 330.948C1637.52 330.948 1641.63 330.052 1644.64 327.13C1649 323.022 1649.09 315.992 1649.09 308.239V298.808C1649.09 287.41 1648.92 285.53 1648.83 283.129C1648.66 280.554 1648.19 279.31 1645.62 278.847C1644.98 278.673 1643.83 278.587 1642.79 278.5C1641.89 278.5 1641.46 278.24 1641.46 277.69C1641.46 277.14 1641.89 276.88 1643.16 276.88C1647.18 276.88 1652.16 277.14 1652.42 277.14C1653.49 277.14 1658.38 276.88 1661.59 276.88C1662.74 276.88 1663.26 277.14 1663.26 277.69C1663.26 278.24 1662.83 278.5 1661.85 278.5C1660.95 278.587 1660.52 278.587 1659.53 278.847C1657.48 279.194 1656.96 280.351 1656.78 283.042C1656.61 285.443 1656.52 287.41 1656.52 298.808V306.821C1656.52 315.269 1655.71 324.266 1648.95 329.791C1643.51 334.246 1637.81 335.143 1632.66 335.143C1628.04 335.143 1620.54 334.709 1615.05 329.878C1611.03 326.493 1608.02 320.968 1608.02 309.946V298.808C1608.02 287.236 1608.02 285.443 1607.85 282.955C1607.67 280.554 1607.12 279.397 1604.72 278.847C1604 278.673 1602.58 278.587 1601.51 278.5C1600.62 278.5 1600.1 278.153 1600.1 277.603C1600.1 277.053 1600.73 276.88 1601.98 276.88C1606 276.88 1611.4 277.14 1613.46 277.14C1615.14 277.14 1620.95 276.88 1623.7 276.88C1624.94 276.88 1625.49 277.14 1625.49 277.69C1625.49 278.24 1624.97 278.5 1624.16 278.5C1623.35 278.587 1622.74 278.673 1621.85 278.847C1619.71 279.194 1619.1 280.554 1619.01 283.129C1618.84 285.53 1618.84 287.757 1618.84 298.808V309.57H1618.75Z" fill="white"/>
<path d="M1678.59 298.779C1678.59 287.207 1678.59 285.153 1678.42 282.665C1678.25 280.178 1677.61 279.194 1675.21 278.644C1674.49 278.471 1673.24 278.471 1672.17 278.384C1671.27 278.384 1670.84 278.124 1670.84 277.574C1670.84 277.024 1671.36 276.851 1672.63 276.851C1676.37 276.851 1679.92 277.111 1683.86 277.111C1686.26 277.111 1702.54 277.111 1703.99 277.024C1705.49 276.851 1706.82 276.677 1707.54 276.59C1707.98 276.504 1708.44 276.243 1708.79 276.243C1709.22 276.243 1709.31 276.59 1709.31 276.966C1709.31 277.516 1708.79 278.558 1708.59 281.769C1708.5 283.186 1708.41 284.719 1708.24 287.034C1708.24 287.468 1708.06 288.278 1707.34 288.278C1706.82 288.278 1706.62 287.844 1706.53 286.86C1706.53 286.513 1706.53 285.356 1706.1 284.372C1705.58 282.955 1704.85 282.145 1701.04 281.711C1699.53 281.537 1691.52 281.364 1689.73 281.364C1689.38 281.364 1689.21 281.624 1689.21 282.174V300.601C1689.21 301.151 1689.29 301.411 1689.73 301.411C1691.61 301.411 1700.14 301.411 1702.11 301.325C1704.33 301.151 1705.49 300.891 1706.21 300.081C1706.73 299.358 1707.11 299.097 1707.46 299.097C1707.8 299.097 1707.98 299.271 1707.98 299.734C1707.98 300.254 1707.63 301.961 1707.34 305.606C1707.34 307.11 1707.08 310.322 1707.08 310.958C1707.08 311.594 1706.99 312.376 1706.27 312.376C1705.75 312.376 1705.46 311.566 1705.46 311.132C1705.37 310.408 1705.37 309.974 1705.2 309.078C1704.77 307.4 1703.87 306.243 1700.75 305.953C1699.16 305.78 1691.67 305.693 1689.7 305.693C1689.26 305.693 1689.18 306.04 1689.18 306.503V312.289C1689.18 314.863 1689.09 321.112 1689.18 323.426C1689.35 328.692 1690.51 329.849 1698.69 329.849C1700.75 329.849 1704.04 329.849 1705.98 328.952C1708.04 327.968 1708.93 326.464 1709.54 323.253C1709.71 322.443 1709.89 322.009 1710.52 322.009C1711.16 322.009 1711.16 322.732 1711.16 323.513C1711.16 325.48 1710.52 330.919 1710.09 332.423C1709.57 334.391 1708.85 334.391 1705.9 334.391C1698.14 334.391 1691.46 333.957 1683.54 333.957C1680.33 333.957 1677.12 334.217 1673.39 334.217C1672.32 334.217 1671.8 333.957 1671.8 333.407C1671.8 333.06 1672.06 332.597 1673.13 332.597C1674.2 332.51 1675.18 332.51 1675.87 332.337C1677.46 331.989 1677.93 330.283 1678.19 327.621C1678.53 324.497 1678.53 318.711 1678.53 312.202V298.837L1678.59 298.779Z" fill="white"/>
<path d="M1752.4 329.501C1760.68 329.501 1763.63 327.534 1764.87 325.046C1765.51 323.889 1765.94 322.645 1766.2 321.575C1766.37 320.852 1766.72 320.418 1767.18 320.418C1767.82 320.418 1767.91 320.765 1767.91 322.385C1767.91 324.005 1766.84 330.225 1766.2 332.279C1765.85 333.609 1765.39 334.246 1763.97 334.246C1750.87 334.246 1737.71 333.899 1721.43 333.899C1720.62 333.899 1720.1 333.638 1720.1 333.175C1720.1 332.655 1720.44 332.105 1721.34 330.774C1732.1 314.487 1743.7 297.303 1754.02 281.363H1739.42C1735.14 281.363 1730.34 281.537 1727.85 282.607C1725.36 283.678 1724.46 285.905 1723.74 288.943C1723.48 289.926 1723.1 290.274 1722.67 290.274C1722.15 290.274 1721.95 289.927 1721.95 289.03C1721.95 287.323 1723.1 280.206 1723.54 277.805C1723.71 276.735 1723.97 276.388 1724.44 276.388C1725.16 276.388 1725.68 276.822 1727.65 276.908C1735.05 277.169 1738.78 277.169 1742.16 277.169H1766.46C1767.27 277.169 1767.79 277.342 1767.79 277.689C1767.79 278.239 1767.44 278.673 1767.07 279.281C1756.39 296.204 1744.62 313.475 1733.95 329.501H1752.37H1752.4Z" fill="white"/>
<path d="M206.191 158.618V139.641C206.191 127.548 196.357 117.712 184.267 117.712H169.43V64.02C169.401 28.6976 140.709 0 105.424 0H101.085C65.7994 0 37.108 28.6976 37.108 63.9911V117.683H21.9235C9.83375 117.683 0 127.519 0 139.612V158.589C0 211.385 41.3596 254.691 93.3628 257.874V314.025H38.9301C33.0588 314.025 28.2865 318.798 28.2865 324.671C28.2865 330.544 33.0588 335.317 38.9301 335.317H169.083C174.954 335.317 179.726 330.544 179.726 324.671C179.726 318.798 174.954 314.025 169.083 314.025H114.65V257.729C165.814 253.679 206.191 210.777 206.191 158.589V158.618ZM58.3951 63.9911C58.3951 40.4428 77.542 21.2629 101.114 21.2629H105.453C128.996 21.2629 148.171 40.4139 148.171 63.9911V117.683H58.4241V63.9911H58.3951ZM58.3951 138.946H148.143V158.039C148.143 181.588 128.996 200.768 105.424 200.768H101.085C77.542 200.768 58.3662 181.617 58.3662 158.039V138.946H58.3951ZM21.2872 158.589V139.612C21.2872 139.265 21.6053 138.946 21.9524 138.946H37.1369V158.039C37.1369 193.333 65.8283 222.031 101.114 222.031H105.453C140.738 222.031 169.43 193.333 169.43 158.039V138.946H184.267C184.614 138.946 184.932 139.265 184.932 139.612V158.589C184.932 201.722 149.849 236.813 106.725 236.813H99.4944C56.3705 236.813 21.2872 201.722 21.2872 158.589Z" fill="#ED1C2D"/>
<path d="M1479.17 381.95C1479.17 375.586 1479.17 374.14 1479.05 372.664C1478.94 371.247 1478.53 370.523 1477.17 370.263C1476.77 370.147 1476.02 370.118 1475.35 370.06C1474.89 370.06 1474.57 369.916 1474.57 369.598C1474.57 369.279 1474.89 369.135 1475.61 369.135C1477.95 369.135 1481.14 369.279 1482.32 369.279C1484.26 369.279 1486.89 369.135 1489.03 369.135C1494.82 369.135 1496.9 370.755 1498.09 371.883C1499.07 372.809 1500.31 374.602 1500.31 377.669C1500.31 383.397 1495.22 387.823 1488.74 387.823C1488.54 387.823 1487.96 387.823 1487.7 387.765C1487.5 387.649 1487.12 387.563 1487.12 387.244C1487.12 386.926 1487.5 386.839 1488.37 386.839C1491.17 386.839 1494.41 384.091 1494.41 379.636C1494.41 377.871 1494.35 374.95 1491.95 372.867C1490.33 371.449 1488.42 371.247 1487.27 371.247C1486.6 371.247 1485.97 371.304 1485.59 371.391C1485.33 371.449 1485.19 371.709 1485.19 372.288V389.732C1485.19 393.696 1485.19 397.196 1485.45 399.047C1485.56 400.349 1485.85 401.275 1487.21 401.449C1487.88 401.593 1488.83 401.593 1489.44 401.651C1490.02 401.651 1490.22 401.854 1490.22 402.056C1490.22 402.374 1489.84 402.577 1489.38 402.577C1486.31 402.577 1483.02 402.432 1481.98 402.432C1481.08 402.432 1477.81 402.577 1475.99 402.577C1475.41 402.577 1475.09 402.432 1475.09 402.114C1475.09 401.911 1475.29 401.651 1475.87 401.651C1476.51 401.593 1477.03 401.593 1477.49 401.506C1478.39 401.304 1478.65 400.407 1478.79 399.018C1479.05 397.196 1479.05 393.869 1479.05 389.732V381.921L1479.17 381.95Z" fill="white"/>
<path d="M1510.44 385.914C1510.44 378.103 1515.64 368.527 1529.35 368.527C1540.8 368.527 1547.77 375.557 1547.77 385.104C1547.77 395.258 1540.63 403.242 1528.92 403.242C1515.84 403.242 1510.44 393.811 1510.44 385.943V385.914ZM1541.01 386.753C1541.01 377.322 1535.6 370.871 1527.99 370.871C1522.9 370.871 1517.15 373.474 1517.15 384.409C1517.15 393.464 1522.09 400.754 1530.74 400.754C1533.92 400.754 1541.01 399.453 1541.01 386.753Z" fill="white"/>
<path d="M1563.28 381.951C1563.28 375.297 1563.28 374.14 1563.16 372.722C1563.05 371.276 1562.76 370.321 1561.19 370.177L1559.43 370.032C1558.91 370.032 1558.65 369.887 1558.65 369.569C1558.65 369.251 1558.97 369.164 1559.63 369.164C1561.83 369.164 1564.95 369.309 1566.34 369.309C1567.85 369.309 1570.51 369.164 1573.52 369.164C1579.65 369.164 1586.73 369.367 1591.65 374.256C1593.94 376.483 1596.08 380.186 1596.08 385.509C1596.08 390.832 1593.62 395.258 1591.07 397.804C1588.93 399.887 1584.45 403.011 1575.86 403.011C1572.53 403.011 1568.4 402.49 1566.17 402.49C1564.93 402.49 1562.12 402.635 1560.18 402.635C1559.55 402.635 1559.29 402.49 1559.29 402.172C1559.29 401.97 1559.55 401.709 1560.07 401.709C1560.59 401.709 1561.11 401.651 1561.69 401.565C1563.45 401.246 1563.25 396.762 1563.25 389.791V381.98L1563.28 381.951ZM1569.41 386.84C1569.41 391.526 1569.47 394.795 1569.52 395.634C1569.58 396.878 1569.64 398.238 1570.1 398.961C1570.62 399.8 1572.56 400.668 1575.89 400.668C1580.25 400.668 1583.12 399.829 1585.84 397.486C1588.7 395.084 1589.54 391.179 1589.54 386.637C1589.54 381.314 1587.25 377.843 1585.26 375.847C1581.3 371.999 1576.35 371.363 1572.91 371.363C1571.98 371.363 1570.31 371.507 1569.99 371.768C1569.52 372.144 1569.41 372.231 1569.41 381.285V386.753V386.84Z" fill="white"/>
<path d="M1612.39 398.411C1607.85 394.621 1606.66 389.703 1606.66 385.335C1606.66 382.327 1607.64 377.061 1612.07 373.156C1615.51 370.176 1619.94 368.527 1626.7 368.527C1629.51 368.527 1631.27 368.672 1633.36 368.99C1635.12 369.251 1636.48 369.569 1637.9 369.713C1638.36 369.771 1638.56 369.974 1638.56 370.234C1638.56 370.61 1638.45 371.218 1638.36 372.78C1638.3 374.226 1638.3 376.801 1638.22 377.727C1638.16 378.392 1638.07 378.768 1637.64 378.768C1637.26 378.768 1637.06 378.392 1637.06 377.785C1637 376.483 1636.6 374.921 1635.35 373.677C1633.85 372.057 1630.35 370.928 1626.13 370.928C1622.34 370.928 1619.76 371.825 1617.8 373.532C1614.61 376.396 1613.63 380.504 1613.63 384.872C1613.63 395.142 1621.3 400.436 1627.86 400.436C1631.91 400.436 1634.22 400.031 1635.99 398.035C1636.77 397.196 1637.29 395.952 1637.49 395.026C1637.7 394.245 1637.87 394.101 1638.22 394.101C1638.53 394.101 1638.68 394.419 1638.68 394.766C1638.68 395.345 1638.1 399.308 1637.64 400.899C1637.44 401.68 1637.23 401.883 1636.45 402.201C1634.63 402.924 1631.19 403.184 1628.27 403.184C1622.02 403.184 1616.64 401.998 1612.39 398.382V398.411Z" fill="white"/>
<path d="M1656.64 391.642C1656.44 391.642 1656.32 391.757 1656.23 392.018L1653.95 397.688C1653.54 398.787 1653.28 399.886 1653.28 400.407C1653.28 401.709 1654.9 401.767 1655.89 401.767C1656.52 401.767 1656.67 401.969 1656.67 402.172C1656.67 402.548 1656.29 402.635 1655.83 402.635C1654.21 402.635 1652.33 402.49 1650.74 402.49C1650.22 402.49 1647.62 402.635 1645.22 402.635C1644.64 402.635 1644.38 402.519 1644.38 402.172C1644.38 401.911 1644.64 401.709 1645.01 401.709C1648.28 401.391 1649.03 400.783 1650.22 397.746L1661.27 371.652C1662.19 369.193 1662.71 368.209 1663.29 368.209C1663.7 368.209 1663.96 368.672 1664.48 369.829C1665.37 372.375 1673.07 390.137 1675.99 396.82C1677.67 400.725 1678.97 401.391 1680.04 401.622C1680.5 401.738 1681.28 401.738 1681.74 401.738C1682.32 401.738 1682.53 401.94 1682.53 402.201C1682.53 402.519 1682.32 402.664 1681.63 402.664C1679.43 402.664 1673.96 402.779 1670.7 402.548C1670.23 402.49 1669.92 402.403 1669.92 402.143C1669.92 401.94 1670.12 401.825 1670.38 401.738C1670.84 401.593 1671.22 401.42 1670.9 400.812L1667.37 392.018C1667.31 391.815 1667.17 391.699 1666.97 391.699H1656.64V391.642ZM1665.95 389.038C1666.21 389.038 1666.21 388.922 1666.16 388.778L1662.11 378.161C1661.96 377.756 1661.79 377.64 1661.59 378.161L1657.48 388.778C1657.42 388.922 1657.48 389.038 1657.68 389.038H1665.95Z" fill="white"/>
<path d="M1689.38 402.056C1688.66 401.738 1688.48 401.419 1688.48 400.551C1688.48 397.89 1688.63 395.286 1688.69 394.505C1688.74 393.782 1688.89 393.348 1689.26 393.348C1689.67 393.348 1689.73 393.724 1689.79 394.071C1689.84 394.65 1689.84 395.431 1690.1 396.154C1691.03 399.539 1693.89 400.956 1696.87 400.956C1701.04 400.956 1702.92 398.411 1702.92 396.125C1702.92 394.042 1702.28 392.075 1698.43 389.24L1696.24 387.562C1691.09 383.657 1689.41 380.677 1689.41 377.032C1689.41 372.143 1693.63 368.498 1700.14 368.498C1702.22 368.498 1703.47 368.758 1704.77 368.961C1705.49 369.077 1706.13 369.221 1706.65 369.279C1707.05 369.337 1707.17 369.539 1707.17 369.858C1707.17 370.581 1706.97 371.825 1706.97 375.383C1706.97 376.367 1706.82 376.743 1706.45 376.743C1706.13 376.743 1705.98 376.425 1705.92 375.846C1705.87 375.267 1705.55 374.023 1704.88 373.04C1704.1 371.854 1702.66 370.697 1699.68 370.697C1696.24 370.697 1694.27 372.577 1694.27 375.123C1694.27 377.061 1695.19 378.768 1698.95 381.314L1700.4 382.297C1706.24 386.26 1708.09 389.327 1708.09 393.551C1708.09 396.27 1706.94 399.336 1703.61 401.419C1701.27 402.837 1698.61 403.184 1696.21 403.184C1693.4 403.184 1691.32 402.866 1689.32 402.027L1689.38 402.056Z" fill="white"/>
<path d="M1735.77 389.761C1735.77 393.724 1735.77 397.225 1735.97 399.134C1736.12 400.32 1736.38 401.333 1737.8 401.477C1738.43 401.593 1739.36 401.622 1740.02 401.68C1740.54 401.68 1740.81 401.882 1740.81 402.085C1740.81 402.403 1740.49 402.605 1739.88 402.605C1736.87 402.605 1733.69 402.461 1732.53 402.461C1731.49 402.461 1728.31 402.605 1726.55 402.605C1725.91 402.605 1725.62 402.403 1725.62 402.085C1725.62 401.882 1725.82 401.68 1726.4 401.68C1727.04 401.622 1727.56 401.622 1727.96 401.535C1728.95 401.333 1729.21 400.378 1729.38 399.076C1729.58 397.196 1729.58 393.869 1729.58 389.761V371.738C1727.88 371.738 1724.43 371.738 1722.35 371.883C1719.69 372.085 1718.91 372.288 1718.3 373.445C1717.98 374.023 1717.9 374.371 1717.67 374.891C1717.55 375.21 1717.41 375.412 1717.15 375.412C1716.83 375.412 1716.74 375.152 1716.74 374.631C1716.8 373.705 1717.64 370.002 1717.72 369.424C1717.84 368.787 1717.98 368.498 1718.25 368.498C1718.62 368.498 1719.03 368.903 1720.18 369.019C1721.43 369.163 1723.31 369.279 1724.87 369.279H1743.29C1744.74 369.279 1745.75 369.134 1746.42 369.019C1747.08 368.903 1747.46 368.816 1747.72 368.816C1748.04 368.816 1748.09 369.077 1748.09 369.858C1748.09 370.755 1747.89 373.966 1747.89 375.123C1747.83 375.586 1747.75 375.846 1747.43 375.846C1747.05 375.846 1747.02 375.586 1746.97 374.949C1746.97 374.805 1746.91 374.573 1746.91 374.371C1746.79 373.185 1745.72 371.97 1741.85 371.912C1740.6 371.796 1738.66 371.767 1735.8 371.709V389.732L1735.77 389.761Z" fill="white"/>
</g>
<defs>
<clipPath id="clip0_48_113">
<rect width="889" height="208" fill="white" transform="scale(2)"/>
</clipPath>
</defs>
</svg>
